<svg width="623" height="603" viewBox="0 0 623 603" fill="none" xmlns="http://www.w3.org/2000/svg">
<rect width="50" height="50" fill="#FFB86C"/>
<rect x="243" width="50" height="50" fill="#FFB86C"/>
<rect x="81" width="50" height="50" fill="#FFB86C"/>
<rect x="323" width="50" height="50" fill="#FFB86C"/>
<rect x="405" width="50" height="50" fill="#FFB86C"/>
<rect x="485" width="50" height="50" fill="#FFB86C"/>
<rect x="161" width="50" height="50" fill="#FFB86C"/>
<rect x="573" width="50" height="50" fill="#FFB86C"/>
<rect y="79" width="50" height="50" fill="#FFB86C"/>
<rect x="243" y="79" width="50" height="50" fill="#FFB86C"/>
<rect x="81" y="79" width="50" height="50" fill="#FFB86C"/>
<rect x="323" y="79" width="50" height="50" fill="#FFB86C"/>
<rect x="405" y="79" width="50" height="50" fill="#FFB86C"/>
<rect x="485" y="79" width="50" height="50" fill="#FFB86C"/>
<rect x="161" y="79" width="50" height="50" fill="#FFB86C"/>
<rect x="573" y="79" width="50" height="50" fill="#FFB86C"/>
<rect y="158" width="50" height="50" fill="#FFB86C"/>
<rect x="243" y="158" width="50" height="50" fill="#FFB86C"/>
<rect x="81" y="158" width="50" height="50" fill="#FFB86C"/>
<rect x="323" y="158" width="50" height="50" fill="#FFB86C"/>
<rect x="405" y="158" width="50" height="50" fill="#FFB86C"/>
<rect x="485" y="158" width="50" height="50" fill="#FFB86C"/>
<rect x="161" y="158" width="50" height="50" fill="#FFB86C"/>
<rect x="573" y="158" width="50" height="50" fill="#FFB86C"/>
<rect y="237" width="50" height="50" fill="#FFB86C"/>
<rect x="243" y="237" width="50" height="50" fill="#FFB86C"/>
<rect x="81" y="237" width="50" height="50" fill="#FFB86C"/>
<rect x="323" y="237" width="50" height="50" fill="#FFB86C"/>
<rect x="405" y="237" width="50" height="50" fill="#FFB86C"/>
<rect x="485" y="237" width="50" height="50" fill="#FFB86C"/>
<rect x="161" y="237" width="50" height="50" fill="#FFB86C"/>
<rect x="573" y="237" width="50" height="50" fill="#FFB86C"/>
<rect y="316" width="50" height="50" fill="#FFB86C"/>
<rect x="243" y="316" width="50" height="50" fill="#FFB86C"/>
<rect x="81" y="316" width="50" height="50" fill="#FFB86C"/>
<rect x="323" y="316" width="50" height="50" fill="#FFB86C"/>
<rect x="405" y="316" width="50" height="50" fill="#FFB86C"/>
<rect x="485" y="316" width="50" height="50" fill="#FFB86C"/>
<rect x="161" y="316" width="50" height="50" fill="#FFB86C"/>
<rect x="573" y="316" width="50" height="50" fill="#FFB86C"/>
<rect y="553" width="50" height="50" fill="#FFB86C"/>
<rect x="243" y="553" width="50" height="50" fill="#FFB86C"/>
<rect x="81" y="553" width="50" height="50" fill="#FFB86C"/>
<rect x="323" y="553" width="50" height="50" fill="#FFB86C"/>
<rect x="405" y="553" width="50" height="50" fill="#FFB86C"/>
<rect x="485" y="553" width="50" height="50" fill="#FFB86C"/>
<rect x="161" y="553" width="50" height="50" fill="#FFB86C"/>
<rect x="573" y="553" width="50" height="50" fill="#FFB86C"/>
<rect y="316" width="50" height="50" fill="#FFB86C"/>
<rect x="243" y="316" width="50" height="50" fill="#FFB86C"/>
<rect x="81" y="316" width="50" height="50" fill="#FFB86C"/>
<rect x="323" y="316" width="50" height="50" fill="#FFB86C"/>
<rect x="405" y="316" width="50" height="50" fill="#FFB86C"/>
<rect x="485" y="316" width="50" height="50" fill="#FFB86C"/>
<rect x="161" y="316" width="50" height="50" fill="#FFB86C"/>
<rect x="573" y="316" width="50" height="50" fill="#FFB86C"/>
<path d="M72.9414 483.266C70.9492 486.195 68.5859 488.422 65.8516 489.945C63.1562 491.469 60.0703 492.23 56.5938 492.23C48.7812 492.23 42.707 489.379 38.3711 483.676C34.0742 477.973 31.9258 470.434 31.9258 461.059V459.828C31.9258 449.828 34.0938 441.762 38.4297 435.629C42.7656 429.496 48.8594 426.43 56.7109 426.43C59.875 426.43 62.7266 427.133 65.2656 428.539C67.8047 429.906 70.0312 431.859 71.9453 434.398V411.664L62.8047 409.906V399.594H71.9453H89.0547V478.988L97.2578 480.746V491H74.2305L72.9414 483.266ZM49.0352 461.059C49.0352 466.605 49.9531 470.98 51.7891 474.184C53.6641 477.348 56.7109 478.93 60.9297 478.93C63.4297 478.93 65.5977 478.422 67.4336 477.406C69.2695 476.391 70.7734 474.926 71.9453 473.012V446.117C70.7734 444.086 69.2695 442.523 67.4336 441.43C65.6367 440.297 63.5078 439.73 61.0469 439.73C56.8672 439.73 53.8203 441.586 51.9062 445.297C49.9922 449.008 49.0352 453.852 49.0352 459.828V461.059ZM133.059 492.23C123.918 492.23 116.613 489.301 111.145 483.441C105.676 477.582 102.941 470.141 102.941 461.117V458.773C102.941 449.359 105.52 441.605 110.676 435.512C115.871 429.418 122.824 426.391 131.535 426.43C140.09 426.43 146.73 429.008 151.457 434.164C156.184 439.32 158.547 446.293 158.547 455.082V464.398H120.695L120.578 464.75C120.891 468.93 122.277 472.367 124.738 475.062C127.238 477.758 130.617 479.105 134.875 479.105C138.664 479.105 141.809 478.734 144.309 477.992C146.809 477.211 149.543 476 152.512 474.359L157.141 484.906C154.523 486.977 151.125 488.715 146.945 490.121C142.805 491.527 138.176 492.23 133.059 492.23ZM131.535 439.613C128.371 439.613 125.871 440.824 124.035 443.246C122.199 445.668 121.066 448.852 120.637 452.797L120.812 453.09H141.789V451.566C141.789 447.934 140.93 445.043 139.211 442.895C137.531 440.707 134.973 439.613 131.535 439.613ZM192.766 437.914L186.789 439.027L195.168 467.387L196.281 473.363H196.633L197.863 467.387L206.125 439.086L200.031 437.914V427.602H228.801V437.914L223.293 438.793L204.602 491H188.254L169.504 438.793L163.996 437.914V427.602H192.766V437.914ZM263.84 492.23C254.699 492.23 247.395 489.301 241.926 483.441C236.457 477.582 233.723 470.141 233.723 461.117V458.773C233.723 449.359 236.301 441.605 241.457 435.512C246.652 429.418 253.605 426.391 262.316 426.43C270.871 426.43 277.512 429.008 282.238 434.164C286.965 439.32 289.328 446.293 289.328 455.082V464.398H251.477L251.359 464.75C251.672 468.93 253.059 472.367 255.52 475.062C258.02 477.758 261.398 479.105 265.656 479.105C269.445 479.105 272.59 478.734 275.09 477.992C277.59 477.211 280.324 476 283.293 474.359L287.922 484.906C285.305 486.977 281.906 488.715 277.727 490.121C273.586 491.527 268.957 492.23 263.84 492.23ZM262.316 439.613C259.152 439.613 256.652 440.824 254.816 443.246C252.98 445.668 251.848 448.852 251.418 452.797L251.594 453.09H272.57V451.566C272.57 447.934 271.711 445.043 269.992 442.895C268.312 440.707 265.754 439.613 262.316 439.613ZM295.656 409.906V399.594H321.906V478.988L330.168 480.746V491H296.535V480.746L304.797 478.988V411.664L295.656 409.906ZM334.621 458.715C334.621 449.262 337.258 441.527 342.531 435.512C347.844 429.457 355.168 426.43 364.504 426.43C373.879 426.43 381.203 429.438 386.477 435.453C391.789 441.469 394.445 449.223 394.445 458.715V459.945C394.445 469.477 391.789 477.25 386.477 483.266C381.203 489.242 373.918 492.23 364.621 492.23C355.207 492.23 347.844 489.242 342.531 483.266C337.258 477.25 334.621 469.477 334.621 459.945V458.715ZM351.73 459.945C351.73 465.727 352.746 470.375 354.777 473.891C356.809 477.367 360.09 479.105 364.621 479.105C369.035 479.105 372.258 477.348 374.289 473.832C376.359 470.316 377.395 465.688 377.395 459.945V458.715C377.395 453.09 376.359 448.5 374.289 444.945C372.219 441.391 368.957 439.613 364.504 439.613C360.051 439.613 356.809 441.391 354.777 444.945C352.746 448.5 351.73 453.09 351.73 458.715V459.945ZM400.598 437.914V427.602H425.441L426.262 434.984C428.137 432.25 430.383 430.141 433 428.656C435.617 427.172 438.664 426.43 442.141 426.43C449.992 426.43 456.086 429.496 460.422 435.629C464.758 441.762 466.926 449.828 466.926 459.828V461.059C466.926 470.434 464.758 477.973 460.422 483.676C456.086 489.379 450.031 492.23 442.258 492.23C438.938 492.23 435.988 491.625 433.41 490.414C430.832 489.164 428.625 487.348 426.789 484.965V503.305L435.051 505.062V515.375H401.477V505.062L409.738 503.305V439.672L400.598 437.914ZM449.816 459.828C449.816 453.852 448.82 449.008 446.828 445.297C444.836 441.586 441.789 439.73 437.688 439.73C435.109 439.73 432.902 440.258 431.066 441.312C429.27 442.367 427.844 443.871 426.789 445.824V473.598C427.844 475.395 429.27 476.762 431.066 477.699C432.902 478.637 435.148 479.105 437.805 479.105C441.945 479.105 444.973 477.484 446.887 474.242C448.84 471 449.816 466.605 449.816 461.059V459.828ZM504.895 492.23C495.754 492.23 488.449 489.301 482.98 483.441C477.512 477.582 474.777 470.141 474.777 461.117V458.773C474.777 449.359 477.355 441.605 482.512 435.512C487.707 429.418 494.66 426.391 503.371 426.43C511.926 426.43 518.566 429.008 523.293 434.164C528.02 439.32 530.383 446.293 530.383 455.082V464.398H492.531L492.414 464.75C492.727 468.93 494.113 472.367 496.574 475.062C499.074 477.758 502.453 479.105 506.711 479.105C510.5 479.105 513.645 478.734 516.145 477.992C518.645 477.211 521.379 476 524.348 474.359L528.977 484.906C526.359 486.977 522.961 488.715 518.781 490.121C514.641 491.527 510.012 492.23 504.895 492.23ZM503.371 439.613C500.207 439.613 497.707 440.824 495.871 443.246C494.035 445.668 492.902 448.852 492.473 452.797L492.648 453.09H513.625V451.566C513.625 447.934 512.766 445.043 511.047 442.895C509.367 440.707 506.809 439.613 503.371 439.613ZM539.816 480.746L548.02 478.988V439.672L538.938 437.914V427.602H563.957L564.719 436.859C566.203 433.578 568.117 431.02 570.461 429.184C572.805 427.348 575.52 426.43 578.605 426.43C579.504 426.43 580.441 426.508 581.418 426.664C582.434 426.781 583.273 426.938 583.938 427.133L582.121 442.719L575.09 442.543C572.59 442.543 570.52 443.031 568.879 444.008C567.238 444.984 565.988 446.371 565.129 448.168V478.988L573.332 480.746V491H539.816V480.746Z" fill="#FFB86C"/>
</svg>
