<svg width="623" height="287" viewBox="0 0 623 287" fill="none" xmlns="http://www.w3.org/2000/svg">
<path d="M85.9414 168.266C83.9492 171.195 81.5859 173.422 78.8516 174.945C76.1562 176.469 73.0703 177.23 69.5938 177.23C61.7812 177.23 55.707 174.379 51.3711 168.676C47.0742 162.973 44.9258 155.434 44.9258 146.059V144.828C44.9258 134.828 47.0938 126.762 51.4297 120.629C55.7656 114.496 61.8594 111.43 69.7109 111.43C72.875 111.43 75.7266 112.133 78.2656 113.539C80.8047 114.906 83.0312 116.859 84.9453 119.398V96.6641L75.8047 94.9062V84.5938H84.9453H102.055V163.988L110.258 165.746V176H87.2305L85.9414 168.266ZM62.0352 146.059C62.0352 151.605 62.9531 155.98 64.7891 159.184C66.6641 162.348 69.7109 163.93 73.9297 163.93C76.4297 163.93 78.5977 163.422 80.4336 162.406C82.2695 161.391 83.7734 159.926 84.9453 158.012V131.117C83.7734 129.086 82.2695 127.523 80.4336 126.43C78.6367 125.297 76.5078 124.73 74.0469 124.73C69.8672 124.73 66.8203 126.586 64.9062 130.297C62.9922 134.008 62.0352 138.852 62.0352 144.828V146.059ZM146.059 177.23C136.918 177.23 129.613 174.301 124.145 168.441C118.676 162.582 115.941 155.141 115.941 146.117V143.773C115.941 134.359 118.52 126.605 123.676 120.512C128.871 114.418 135.824 111.391 144.535 111.43C153.09 111.43 159.73 114.008 164.457 119.164C169.184 124.32 171.547 131.293 171.547 140.082V149.398H133.695L133.578 149.75C133.891 153.93 135.277 157.367 137.738 160.062C140.238 162.758 143.617 164.105 147.875 164.105C151.664 164.105 154.809 163.734 157.309 162.992C159.809 162.211 162.543 161 165.512 159.359L170.141 169.906C167.523 171.977 164.125 173.715 159.945 175.121C155.805 176.527 151.176 177.23 146.059 177.23ZM144.535 124.613C141.371 124.613 138.871 125.824 137.035 128.246C135.199 130.668 134.066 133.852 133.637 137.797L133.812 138.09H154.789V136.566C154.789 132.934 153.93 130.043 152.211 127.895C150.531 125.707 147.973 124.613 144.535 124.613ZM205.766 122.914L199.789 124.027L208.168 152.387L209.281 158.363H209.633L210.863 152.387L219.125 124.086L213.031 122.914V112.602H241.801V122.914L236.293 123.793L217.602 176H201.254L182.504 123.793L176.996 122.914V112.602H205.766V122.914ZM276.84 177.23C267.699 177.23 260.395 174.301 254.926 168.441C249.457 162.582 246.723 155.141 246.723 146.117V143.773C246.723 134.359 249.301 126.605 254.457 120.512C259.652 114.418 266.605 111.391 275.316 111.43C283.871 111.43 290.512 114.008 295.238 119.164C299.965 124.32 302.328 131.293 302.328 140.082V149.398H264.477L264.359 149.75C264.672 153.93 266.059 157.367 268.52 160.062C271.02 162.758 274.398 164.105 278.656 164.105C282.445 164.105 285.59 163.734 288.09 162.992C290.59 162.211 293.324 161 296.293 159.359L300.922 169.906C298.305 171.977 294.906 173.715 290.727 175.121C286.586 176.527 281.957 177.23 276.84 177.23ZM275.316 124.613C272.152 124.613 269.652 125.824 267.816 128.246C265.98 130.668 264.848 133.852 264.418 137.797L264.594 138.09H285.57V136.566C285.57 132.934 284.711 130.043 282.992 127.895C281.312 125.707 278.754 124.613 275.316 124.613ZM308.656 94.9062V84.5938H334.906V163.988L343.168 165.746V176H309.535V165.746L317.797 163.988V96.6641L308.656 94.9062ZM347.621 143.715C347.621 134.262 350.258 126.527 355.531 120.512C360.844 114.457 368.168 111.43 377.504 111.43C386.879 111.43 394.203 114.438 399.477 120.453C404.789 126.469 407.445 134.223 407.445 143.715V144.945C407.445 154.477 404.789 162.25 399.477 168.266C394.203 174.242 386.918 177.23 377.621 177.23C368.207 177.23 360.844 174.242 355.531 168.266C350.258 162.25 347.621 154.477 347.621 144.945V143.715ZM364.73 144.945C364.73 150.727 365.746 155.375 367.777 158.891C369.809 162.367 373.09 164.105 377.621 164.105C382.035 164.105 385.258 162.348 387.289 158.832C389.359 155.316 390.395 150.688 390.395 144.945V143.715C390.395 138.09 389.359 133.5 387.289 129.945C385.219 126.391 381.957 124.613 377.504 124.613C373.051 124.613 369.809 126.391 367.777 129.945C365.746 133.5 364.73 138.09 364.73 143.715V144.945ZM413.598 122.914V112.602H438.441L439.262 119.984C441.137 117.25 443.383 115.141 446 113.656C448.617 112.172 451.664 111.43 455.141 111.43C462.992 111.43 469.086 114.496 473.422 120.629C477.758 126.762 479.926 134.828 479.926 144.828V146.059C479.926 155.434 477.758 162.973 473.422 168.676C469.086 174.379 463.031 177.23 455.258 177.23C451.938 177.23 448.988 176.625 446.41 175.414C443.832 174.164 441.625 172.348 439.789 169.965V188.305L448.051 190.062V200.375H414.477V190.062L422.738 188.305V124.672L413.598 122.914ZM462.816 144.828C462.816 138.852 461.82 134.008 459.828 130.297C457.836 126.586 454.789 124.73 450.688 124.73C448.109 124.73 445.902 125.258 444.066 126.312C442.27 127.367 440.844 128.871 439.789 130.824V158.598C440.844 160.395 442.27 161.762 444.066 162.699C445.902 163.637 448.148 164.105 450.805 164.105C454.945 164.105 457.973 162.484 459.887 159.242C461.84 156 462.816 151.605 462.816 146.059V144.828ZM517.895 177.23C508.754 177.23 501.449 174.301 495.98 168.441C490.512 162.582 487.777 155.141 487.777 146.117V143.773C487.777 134.359 490.355 126.605 495.512 120.512C500.707 114.418 507.66 111.391 516.371 111.43C524.926 111.43 531.566 114.008 536.293 119.164C541.02 124.32 543.383 131.293 543.383 140.082V149.398H505.531L505.414 149.75C505.727 153.93 507.113 157.367 509.574 160.062C512.074 162.758 515.453 164.105 519.711 164.105C523.5 164.105 526.645 163.734 529.145 162.992C531.645 162.211 534.379 161 537.348 159.359L541.977 169.906C539.359 171.977 535.961 173.715 531.781 175.121C527.641 176.527 523.012 177.23 517.895 177.23ZM516.371 124.613C513.207 124.613 510.707 125.824 508.871 128.246C507.035 130.668 505.902 133.852 505.473 137.797L505.648 138.09H526.625V136.566C526.625 132.934 525.766 130.043 524.047 127.895C522.367 125.707 519.809 124.613 516.371 124.613ZM552.816 165.746L561.02 163.988V124.672L551.938 122.914V112.602H576.957L577.719 121.859C579.203 118.578 581.117 116.02 583.461 114.184C585.805 112.348 588.52 111.43 591.605 111.43C592.504 111.43 593.441 111.508 594.418 111.664C595.434 111.781 596.273 111.938 596.938 112.133L595.121 127.719L588.09 127.543C585.59 127.543 583.52 128.031 581.879 129.008C580.238 129.984 578.988 131.371 578.129 133.168V163.988L586.332 165.746V176H552.816V165.746Z" fill="#BD93F9"/>
<rect width="50" height="50" fill="#BD93F9"/>
<rect x="243" width="50" height="50" fill="#BD93F9"/>
<rect x="81" width="50" height="50" fill="#BD93F9"/>
<rect x="323" width="50" height="50" fill="#BD93F9"/>
<rect x="405" width="50" height="50" fill="#BD93F9"/>
<rect x="485" width="50" height="50" fill="#BD93F9"/>
<rect x="161" width="50" height="50" fill="#BD93F9"/>
<rect x="573" width="50" height="50" fill="#BD93F9"/>
<rect y="237" width="50" height="50" fill="#BD93F9"/>
<rect x="243" y="237" width="50" height="50" fill="#BD93F9"/>
<rect x="81" y="237" width="50" height="50" fill="#BD93F9"/>
<rect x="323" y="237" width="50" height="50" fill="#BD93F9"/>
<rect x="405" y="237" width="50" height="50" fill="#BD93F9"/>
<rect x="485" y="237" width="50" height="50" fill="#BD93F9"/>
<rect x="161" y="237" width="50" height="50" fill="#BD93F9"/>
<rect x="573" y="237" width="50" height="50" fill="#BD93F9"/>
<rect width="50" height="50" fill="#BD93F9"/>
<rect x="243" width="50" height="50" fill="#BD93F9"/>
<rect x="81" width="50" height="50" fill="#BD93F9"/>
<rect x="323" width="50" height="50" fill="#BD93F9"/>
<rect x="405" width="50" height="50" fill="#BD93F9"/>
<rect x="485" width="50" height="50" fill="#BD93F9"/>
<rect x="161" width="50" height="50" fill="#BD93F9"/>
<rect x="573" width="50" height="50" fill="#BD93F9"/>
</svg>
