<svg width="189" height="167" viewBox="0 0 189 167" fill="none" xmlns="http://www.w3.org/2000/svg">
<path d="M42.7417 123.175C42.8482 67.8102 82.9215 20.617 137.537 11.5381L184.784 3.68388C141.674 31.3186 131.357 72.2184 145.911 123.175L141.382 125.14C138.684 126.311 135.622 126.311 132.924 125.14L119.969 119.52C117.271 118.349 114.209 118.349 111.511 119.52L98.5558 125.14C95.8579 126.311 92.7956 126.311 90.0977 125.14L77.1425 119.52C74.4447 118.349 71.3824 118.349 68.6845 119.52L55.7293 125.14C53.0314 126.311 49.9691 126.311 47.2712 125.14L42.7417 123.175Z" fill="#A0C8FF"/>
<path d="M67.2175 152.986L54.2623 158.607C52.5069 159.368 50.4929 159.368 48.7376 158.607C46.8706 157.796 44.7007 158.653 43.8908 160.52C43.0809 162.387 43.9376 164.557 45.8042 165.367C47.6141 166.152 49.5574 166.544 51.5003 166.544C53.4428 166.544 55.3857 166.152 57.1956 165.367L70.1508 159.746C72.0175 158.936 72.8745 156.766 72.0642 154.899C71.2544 153.033 69.0845 152.176 67.2175 152.986Z" fill="black"/>
<path d="M110.044 152.986L97.0885 158.607C95.3331 159.368 93.3191 159.368 91.5637 158.607C89.6971 157.796 87.5265 158.653 86.717 160.52C85.9071 162.387 86.7638 164.557 88.6304 165.367C90.4407 166.152 92.3832 166.545 94.3261 166.545C96.2686 166.545 98.2123 166.152 100.022 165.367L112.977 159.747C114.844 158.937 115.701 156.767 114.89 154.9C114.081 153.033 111.912 152.176 110.044 152.986Z" fill="black"/>
<path d="M164.263 152.986C160.643 151.416 156.491 151.415 152.871 152.986L139.916 158.607C138.161 159.368 136.147 159.368 134.391 158.607C132.524 157.796 130.354 158.653 129.545 160.52C128.735 162.387 129.591 164.557 131.458 165.367C133.268 166.152 135.211 166.544 137.154 166.544C139.096 166.544 141.04 166.152 142.849 165.367L155.805 159.746C157.56 158.985 159.574 158.985 161.329 159.746C163.196 160.555 165.366 159.699 166.176 157.833C166.986 155.966 166.129 153.796 164.263 152.986Z" fill="black"/>
<path d="M51.4999 148.123C53.4748 148.123 55.3912 147.725 57.1963 146.944C59.0574 146.137 59.9156 143.959 59.1086 142.098C58.5228 140.75 57.1963 139.877 55.7262 139.877C55.2214 139.877 54.7276 139.98 54.263 140.183C52.5459 140.93 50.4568 140.93 48.736 140.183L35.7809 134.564C33.9791 133.782 32.0631 133.384 30.0844 133.384C29.049 133.384 28.014 133.495 27.0044 133.716C26.0427 133.929 25.2211 134.501 24.6905 135.33C24.1599 136.159 23.9867 137.146 24.1967 138.108C24.3773 138.933 24.8415 139.674 25.5011 140.201C26.3596 140.883 27.5092 141.152 28.5851 140.915C29.9923 140.606 31.5328 140.754 32.8479 141.324L45.8031 146.944C47.6052 147.725 49.5249 148.123 51.4999 148.123Z" fill="black"/>
<path d="M12.1004 138.962C11.695 138.962 11.2934 139.029 10.9065 139.161C9.97432 139.482 9.22303 140.141 8.79156 141.026C8.35677 141.91 8.29413 142.908 8.61138 143.841C9.12354 145.333 10.5233 146.336 12.1007 146.336C12.5024 146.336 12.904 146.266 13.2905 146.137C14.2227 145.816 14.9744 145.153 15.4055 144.272C15.8406 143.388 15.9033 142.386 15.586 141.457C15.0739 139.964 13.6733 138.962 12.1004 138.962Z" fill="black"/>
<path d="M121.436 134.563C117.816 132.992 113.664 132.992 110.045 134.563L97.0896 140.183C95.3342 140.945 93.3202 140.945 91.5648 140.183L78.6096 134.563C76.743 133.753 74.5724 134.61 73.7629 136.476C72.953 138.343 73.8097 140.513 75.6763 141.323L88.6315 146.944C90.4417 147.729 92.3843 148.122 94.3272 148.122C96.2697 148.122 98.2134 147.729 100.023 146.944L112.978 141.323C114.733 140.562 116.747 140.562 118.503 141.323C120.369 142.132 122.539 141.276 123.35 139.41C124.16 137.543 123.303 135.373 121.436 134.563Z" fill="black"/>
<path d="M170.37 137.212L164.261 134.563C162.456 133.778 160.54 133.384 158.568 133.384C156.59 133.384 154.674 133.782 152.872 134.563L139.917 140.182C139.014 140.576 138.318 141.295 137.957 142.208C137.592 143.126 137.611 144.128 138.001 145.03C138.587 146.379 139.913 147.249 141.384 147.249C141.888 147.249 142.382 147.146 142.85 146.943L155.805 141.324C157.518 140.576 159.607 140.576 161.332 141.324L167.437 143.973C167.902 144.176 168.395 144.279 168.9 144.279C170.37 144.279 171.697 143.406 172.283 142.057C173.093 140.197 172.235 138.023 170.37 137.212Z" fill="black"/>
<path d="M184.438 137.714C183.617 137.714 182.839 137.979 182.187 138.484C181.406 139.088 180.912 139.957 180.787 140.934C180.661 141.91 180.927 142.876 181.531 143.653C182.231 144.563 183.296 145.083 184.446 145.083C185.267 145.083 186.049 144.817 186.697 144.313C188.303 143.067 188.598 140.75 187.356 139.143C186.652 138.233 185.588 137.714 184.438 137.714Z" fill="black"/>
<path d="M145.315 46.3081C143.785 46.3081 142.396 47.2698 141.862 48.7031L141.858 48.7068C141.151 50.6118 142.124 52.7382 144.029 53.4489C144.441 53.6 144.876 53.6811 145.311 53.6811C146.844 53.6811 148.233 52.7157 148.767 51.2787C149.475 49.3737 148.502 47.2514 146.6 46.5403C146.184 46.3855 145.753 46.3081 145.315 46.3081Z" fill="black"/>
<path d="M187.722 120.09C186.37 118.569 184.041 118.432 182.52 119.785C180.557 121.531 177.698 121.969 175.239 120.902L164.262 116.139C160.643 114.569 156.491 114.569 152.871 116.139L148.347 118.102C145.062 105.535 143.391 93.6726 143.391 82.7934C143.391 77.8817 143.734 73.0656 144.401 68.4893C144.696 66.4774 143.299 64.602 141.287 64.3072C140.237 64.1561 139.161 64.4689 138.355 65.1583C137.68 65.7368 137.238 66.5401 137.109 67.4207C136.391 72.3507 136.026 77.524 136.026 82.7934C136.026 88.7698 136.494 95.0485 137.419 101.452C138.329 107.746 139.703 114.345 141.505 121.07L139.916 121.759C138.163 122.521 136.147 122.521 134.389 121.759C134.389 121.759 121.439 116.142 121.434 116.14C117.861 114.59 113.609 114.588 110.041 116.14L97.0903 121.759C95.3401 122.521 93.3246 122.521 91.5634 121.759C91.5634 121.759 78.6133 116.142 78.6082 116.14C75.0267 114.586 70.7897 114.585 67.2153 116.14L62.108 118.356C62.0841 117.496 62.0679 116.632 62.0679 115.76C62.0679 107.178 63.9776 98.9601 66.9017 90.9073C67.5948 88.9986 66.607 86.88 64.6987 86.1873C64.2934 86.0362 63.8696 85.9625 63.4385 85.9625C61.8984 85.9625 60.5056 86.9353 59.9787 88.387C57.7602 94.474 56.1172 100.801 55.0888 107.19L55.063 107.393C55.0004 107.982 54.6986 111.166 54.6945 115.761C54.6945 117.702 54.755 119.62 54.8662 121.497L54.2634 121.759C52.5059 122.521 50.4907 122.521 48.7365 121.759L46.4561 120.771C47.6974 68.2059 86.2534 23.7983 138.14 15.1726L170.075 9.86303C166.169 13.1202 162.547 16.5915 159.312 20.173C156.084 23.7508 153.148 27.546 150.594 31.4443C149.481 33.1466 149.961 35.4348 151.659 36.5475C152.26 36.9418 152.957 37.1522 153.675 37.1522C154.924 37.1522 156.078 36.5295 156.759 35.483C163.848 24.6686 173.944 15.0112 186.774 6.7871C188.237 5.84346 188.849 3.98309 188.222 2.36185C187.68 0.946582 186.299 0 184.785 0C184.582 0 184.379 0.0147383 184.18 0.0515847L136.932 7.9028C123.103 10.2016 109.957 14.8889 97.8637 21.8307C92.0088 25.1911 86.4082 29.0895 81.2132 33.4189C76.0584 37.7189 71.2389 42.4941 66.891 47.6158C62.5432 52.7341 58.6113 58.2648 55.2071 64.0496C51.7763 69.875 48.8363 76.0354 46.4667 82.3586C42.2239 93.6907 39.7872 105.528 39.1995 117.622L35.7824 116.14C32.163 114.569 28.0112 114.569 24.391 116.14L13.4145 120.902C10.9542 121.969 8.09607 121.531 6.13364 119.785C4.61372 118.433 2.2843 118.569 0.931671 120.089C-0.420959 121.61 -0.284627 123.939 1.23565 125.291C5.33333 128.936 11.2641 129.868 16.3478 127.663L27.3243 122.9C29.0797 122.139 31.0937 122.139 32.8491 122.9L45.8042 128.521C47.6141 129.306 49.5574 129.698 51.5 129.698C53.4429 129.698 55.3858 129.306 57.1957 128.521L70.1508 122.9C71.9069 122.138 73.9202 122.139 75.6756 122.9L88.6308 128.521C92.2505 130.091 96.4024 130.091 100.022 128.521L112.977 122.9C114.733 122.139 116.746 122.139 118.502 122.9L131.457 128.521C135.077 130.091 139.229 130.091 142.849 128.521L155.804 122.9C157.559 122.139 159.573 122.139 161.329 122.9L172.305 127.663C177.388 129.868 183.319 128.937 187.417 125.292C188.938 123.939 189.074 121.61 187.722 120.09Z" fill="black"/>
</svg>
